<svg width="165" height="876" viewBox="0 0 165 876" fill="none" xmlns="http://www.w3.org/2000/svg">
<path d="M155.916 67.3779C149.478 67.8091 148.308 67.5011 148.308 65.2835C148.308 57.645 171.008 61.033 162.846 65.8071C160.659 67.1007 160.628 67.4703 162.476 68.7639C165.156 70.6119 159.026 76.464 155.762 75.2012C154.684 74.77 152.558 74.4311 151.049 74.4311C146.398 74.4311 148.062 71.7824 153.298 70.7968C159.488 69.6263 161.49 67.0083 155.916 67.3779Z" fill="#F0E7AF"/>
<path d="M159.365 82.5932C156.747 81.7308 156.316 78.6816 158.811 78.6816C160.043 78.6816 161.059 79.698 161.059 80.8992C161.059 82.1312 160.289 82.9012 159.365 82.5932Z" fill="#F0E7AF"/>
<path d="M153.821 57.8298C150.402 56.9367 151.08 53.9182 154.684 53.9182C157.302 53.9182 158.996 56.2282 157.456 57.7374C156.994 58.1994 155.361 58.2302 153.821 57.8298Z" fill="#F0E7AF"/>
<path d="M145.659 75.8789L149.817 78.0348C154.53 80.468 154.776 81.2073 152.004 85.1189C150.926 86.6589 149.971 88.5685 149.879 89.3385C149.509 92.6033 140.823 90.7861 137.897 86.8436L134.971 82.932L142.641 75.2628L142.641 80.5296C142.641 84.4413 143.226 85.7965 144.951 85.7965C146.799 85.7965 147.107 84.78 146.46 80.8377L145.659 75.8789Z" fill="#F0E7AF"/>
<path d="M141.994 57.1215C141.563 50.4378 144.088 45.5098 146.183 48.9286C148.955 53.4254 149.355 58.5691 147.107 60.4787C142.856 64.1439 142.425 63.8359 141.994 57.1215Z" fill="#F0E7AF"/>
<path d="M142.641 69.5031C142.641 72.3059 145.474 72.3059 145.474 69.5031C145.474 66.6695 142.641 66.6695 142.641 69.5031Z" fill="#F0E7AF"/>
<path d="M128.473 71.0431C128.473 72.8911 129.52 73.1068 134.14 72.3368C140.639 71.228 141.563 72.9835 136.327 76.4332C131.522 79.544 123.606 79.544 124.807 76.4024C125.3 75.1396 124.9 73.1683 123.945 71.9979C120.588 67.9631 129.828 62.9735 136.142 65.4067C140.084 66.916 138.575 68.7948 133.431 68.7948C129.859 68.7948 128.473 69.4107 128.473 71.0431Z" fill="#F0E7AF"/>
<path d="M134.078 51.8854C135.125 50.1914 135.741 50.1606 137.589 51.7006C140.084 53.795 140.608 61.033 138.359 62.4498C134.417 64.8831 131.091 56.5978 134.078 51.8854Z" fill="#F0E7AF"/>
<path d="M127.056 83.5481C127.056 82.2545 128.041 81.5153 129.427 81.7924C133 82.47 133.462 85.7657 130.013 85.7657C128.257 85.7657 127.056 84.8725 127.056 83.5481Z" fill="#F0E7AF"/>
<path d="M124.253 59.5854C124.253 62.3883 128.503 62.3883 128.503 59.5854C128.503 56.7826 124.253 56.7826 124.253 59.5854Z" fill="#F0E7AF"/>
<path d="M61.5127 86.0121C68.1964 70.0267 80.4241 62.9426 101.892 62.6038C109.376 62.5114 116.183 63.0967 117.877 63.9591C119.941 65.1603 117.384 65.4991 106.543 65.4375C90.2494 65.3451 80.7937 67.9631 73.8637 74.462C68.0732 79.9136 59.2951 94.8209 59.2951 99.2253C59.2951 104.523 56.4923 102.028 56.3999 108.866C56.3075 116.443 47.745 152.387 39.4597 179.953C33.9157 198.464 33.5769 200.866 34.5625 216.051C35.4865 230.619 45.3426 262.405 54.1823 279.53C57.6011 286.152 57.7551 285.629 57.6935 266.686C57.6627 249.562 59.1103 241.553 62.2211 241.553C63.2375 241.553 63.3916 242.416 62.6216 244.017C61.1431 247.128 60.9275 279.53 60.5887 301.029C60.0651 333.123 37.5501 370.607 50.9482 404.395C53.5971 411.017 55.6299 417.238 55.5375 418.193C55.1063 421.92 57.8475 418.193 59.1719 413.203C63.5147 396.941 62.1903 372.116 56.3383 360.011C53.5047 354.159 52.7347 349.2 54.6751 349.2C56.8003 349.2 63.3299 367.003 64.2848 375.411C64.8084 380.093 65.486 385.175 65.7632 386.746C71.5228 418.347 32.6837 492.329 30.2813 500.83C26.8932 512.75 8.96746 540.347 17.4683 637.029C19.5319 660.53 13.1871 651.567 11.1543 602.194C11.0927 600.623 10.2919 599.853 9.18305 600.284C7.15024 601.085 3.2694 589.412 4.74782 587.009C6.19543 584.638 8.19745 587.163 8.19745 591.383C8.19745 603.703 10.7847 594.371 11.4623 579.679C12.6327 553.899 16.5751 530.183 16.6367 516.076C16.7599 495.625 32.0677 461.036 27.5092 416.499C26.0308 402.084 28.4024 403.809 30.7433 418.84C33.3921 435.903 27.1088 489.188 21.1336 500.368C18.9467 504.434 20.4252 521.066 25.3224 503.818C26.5544 499.383 31.5133 487.432 36.2873 477.268C41.0614 467.073 44.973 457.987 44.973 457.063C44.973 452.659 55.9995 438.244 52.5499 427.741C40.5685 391.304 39.8909 379.785 47.745 348.492C51.9339 331.829 53.9051 323.143 54.3055 319.447C55.7531 306.296 55.8763 297.425 54.6751 292.867C53.1043 286.768 46.4206 269.92 44.665 267.549C38.2585 258.894 30.8049 228.679 30.8357 211.4C30.8665 197.571 31.1437 196.308 43.4022 153.157C57.1083 104.893 56.8927 75.4168 42.663 54.411C35.3017 43.5693 34.6241 43.1072 35.7021 49.7909C37.7041 62.0802 30.0657 60.6942 22.8276 47.4193C19.5936 41.5364 18.8544 3.68292 21.8728 0.664491C23.69 -1.15277 26.154 5.03815 24.614 7.56378C22.458 11.0443 34.5933 39.9656 40.815 46.2181C48.2378 53.641 56.2767 75.4168 56.2767 88.0449C56.2767 94.0818 58.4943 93.2194 61.5127 86.0121Z" fill="#F0E7AF"/>
<path d="M98.7503 77.5112C98.7503 75.3244 90.2186 74.3696 90.311 72.3368C90.465 69.4724 102.292 71.8132 105.126 81.3304C106.851 87.0593 83.3501 83.4249 81.1017 77.6036C77.9601 69.4415 98.7503 81.6384 98.7503 77.5112Z" fill="#F0E7AF"/>
<path d="M73.2785 63.651C73.2785 59.801 91.8202 47.5425 97.6107 47.5425C98.8119 47.5425 98.8119 47.9737 97.7339 52.5013C96.9023 56.1358 91.7894 60.2322 88.1242 60.263C85.691 60.2938 85.8758 59.801 89.541 56.8134C91.8818 54.9038 93.3602 53.3022 92.8058 53.2714C91.0502 53.179 81.1325 59.2775 77.1593 62.9119C73.5249 66.2691 73.2785 66.2999 73.2785 63.651Z" fill="#F0E7AF"/>
<path d="M62.714 102.675C67.3648 93.4965 73.3093 89.6774 81.5637 90.509C90.1262 91.3714 93.6682 94.9442 87.231 96.2377C78.7609 97.9318 57.3547 126.453 57.7243 118.722C57.8167 117.059 76.0505 100.149 76.0813 97.1617C76.1121 95.9913 72.2928 98.8557 67.6112 103.476C58.1247 112.901 57.5703 112.808 62.714 102.675Z" fill="#F0E7AF"/>
<path d="M67.2416 660.868C63.9459 660.653 64.0075 656.464 67.3032 656.464C75.1264 656.464 74.418 667.367 68.2272 666.166C64.7467 665.488 64.0075 662.501 67.1492 661.7C69.5208 661.084 69.5208 661.022 67.2416 660.868Z" fill="#F0E7AF"/>
<path d="M59.3259 530.614L56.1227 528.181C62.0671 525.501 76.2353 518.448 71.6768 526.548C68.9664 531.384 62.9603 533.355 59.3259 530.614Z" fill="#F0E7AF"/>
<path d="M67.8576 670.725C68.6892 673.189 72.3852 674.421 71.5844 671.957C70.7528 669.492 67.026 668.23 67.8576 670.725Z" fill="#F0E7AF"/>
<path d="M57.4163 625.54C60.3731 624.647 64.3155 622.337 66.1636 620.366C73.1244 612.974 73.7096 618.888 67.9808 623.169C61.7283 627.85 58.5559 629.421 55.1987 629.483C50.209 629.575 51.4718 627.327 57.4163 625.54Z" fill="#F0E7AF"/>
<path d="M63.9459 721.083C65.5784 718.28 67.6728 715.97 68.6584 715.97C71.03 715.939 71.03 715.939 66.0712 723.485L61.6975 730.107C63.0219 755.056 67.488 791.708 41.4925 854.725C39.7061 859.007 37.3345 865.382 36.1641 868.893C34.0389 875.269 30.4044 877.887 28.926 874.068C27.7556 870.957 31.1744 857.559 38.5049 836.399C48.0222 808.956 50.6402 795.589 50.671 774.213C50.671 753.238 47.4062 754.347 41.4309 732.633C39.1825 724.44 35.3941 720.19 30.3736 720.19C20.456 720.19 5.30222 698.383 5.27142 684.092C5.27142 677.501 7.55064 677.716 8.72105 684.431C11.5855 700.57 19.5319 712.798 28.6796 715.108C35.0245 716.709 34.6241 713.629 23.536 677.963C19.2855 664.256 18.4231 657.881 20.8564 657.881C22.5196 657.881 21.0104 658.096 27.232 676.7C34.9629 699.8 29.7884 690.437 37.9197 709.132C48.9154 734.389 54.5211 755.025 55.1987 772.92C55.6607 784.84 58.9563 786.534 59.3259 775.045C59.6339 765.497 62.4059 750.282 54.0283 712.397C50.517 696.474 49.9626 690.96 51.4718 687.018C53.1966 682.521 54.6443 684.985 54.4903 692.223C54.3055 701.155 58.9255 717.941 61.0199 726.196L63.9459 721.083Z" fill="#F0E7AF"/>
<path d="M66.6872 653.168C65.5784 652.06 67.6112 646.546 69.1204 646.546C70.9376 646.546 70.7836 651.844 68.9356 652.984C68.104 653.507 67.0876 653.569 66.6872 653.168Z" fill="#F0E7AF"/>
<path d="M64.3156 359.211C61.7283 356.592 66.1944 357.085 66.1944 349.786C66.1944 338.051 70.414 330.258 70.414 346.12C70.414 354.96 67.1184 362.013 64.3156 359.211Z" fill="#F0E7AF"/>
<path d="M63.3608 227.478C64.5312 227.478 66.5948 228.309 67.95 229.357C70.414 231.235 70.6912 232.868 69.4592 237.642C68.5352 241.215 66.8104 240.722 63.3608 235.886C60.9891 232.529 60.7735 231.636 62.4367 231.636C65.6708 231.636 65.8864 236.471 66.0712 233.206C66.2868 229.757 59.4183 227.478 63.3608 227.478Z" fill="#F0E7AF"/>
<path d="M66.9028 224.552C65.7324 226.431 70.4448 226.431 70.4448 224.552C70.414 222.765 68.0732 222.642 66.9028 224.552Z" fill="#F0E7AF"/>
<path d="M59.9111 209.275C62.4059 205.702 66.1944 205.086 66.1944 208.258C66.1944 211.338 70.5064 209.798 70.3216 211.462C70.0444 213.987 65.7632 222.519 64.3156 223.412C61.2047 225.322 60.8967 221.256 63.792 216.359C65.9172 212.724 66.1636 211.585 64.6852 212.047C61.7283 213.002 60.4039 218.884 58.7715 218.884C56.8927 218.884 57.6319 212.54 59.9111 209.275Z" fill="#F0E7AF"/>
<path d="M61.4203 546.014C62.4367 546.014 64.3463 548.078 65.64 550.603C68.3812 555.87 69.4284 575.675 67.7036 589.258C65.7016 604.904 46.7594 635.335 32.1909 646.269C20.0864 655.355 9.09065 667.706 9.61426 671.679C9.73746 672.603 6.13383 675.745 7.55064 669.739C8.56705 665.427 18.9775 650.828 21.0104 650.828C23.0124 650.828 48.6074 624.801 51.0406 620.304C81.0709 564.864 54.8599 537.328 54.8599 546.753C54.8599 550.172 51.7182 548.601 48.9462 543.797C46.3898 539.361 46.9442 531.353 49.7162 532.277C52.057 533.047 51.5026 543.211 53.7203 543.211C56.2767 543.211 52.5499 530.46 54.9215 530.46C56.7695 530.46 59.4183 537.205 59.5107 542.133C59.5415 544.351 60.3731 546.014 61.4203 546.014Z" fill="#F0E7AF"/>
<path d="M57.9399 519.834C59.2951 516.877 60.4655 516.23 63.8536 516.569C70.26 517.185 69.798 519.618 62.6523 522.914C55.8763 526.056 55.2911 525.655 57.9399 519.834Z" fill="#F0E7AF"/>
<path d="M53.2891 143.147C56.1227 137.017 65.5784 125.436 67.7036 125.436C69.336 125.436 69.4284 127.839 67.7652 128.855C67.1184 129.256 65.1164 134.553 63.3608 140.621C61.0199 148.721 58.8331 153.033 55.0755 156.945C48.1454 164.214 46.2666 163.66 52.3959 156.175C61.9439 144.563 63.7612 132.982 58.7099 141.268C57.6011 143.085 55.3219 146.781 53.6587 149.522C49.747 155.929 49.4698 151.339 53.2891 143.147Z" fill="#F0E7AF"/>
<path d="M62.0671 713.814C62.0363 708.67 64.4079 703.188 66.6872 703.188C67.8268 703.188 67.6728 704.174 65.8556 709.564C62.5599 719.204 62.1287 719.728 62.0671 713.814Z" fill="#F0E7AF"/>
<path d="M63.2991 535.604C61.6359 537.267 64.0692 540.963 66.0404 539.731C69.8596 537.359 65.4244 533.448 63.2991 535.604Z" fill="#F0E7AF"/>
<path d="M54.3055 459.65C52.1803 459.65 59.2335 451.303 62.0979 450.379C70.0444 447.854 62.8679 463.993 53.4123 469.999C46.4206 474.404 47.0058 471.785 54.7367 463.993C61.7283 456.971 65.178 450.441 58.6483 456.57C56.8619 458.264 54.8907 459.65 54.3055 459.65Z" fill="#F0E7AF"/>
<path d="M60.3115 351.018C59.5107 340.238 62.8064 326.501 66.1944 326.501C67.8224 326.501 67.7962 326.592 65.413 334.933L65.3936 335.001C64.3772 338.513 63.5148 343.749 63.4532 346.613C63.3299 351.942 60.6811 355.669 60.3115 351.018Z" fill="#F0E7AF"/>
<path d="M64.0384 670.725C63.6071 672.111 63.9151 673.651 64.7159 674.143C66.718 675.375 66.564 680.55 64.5311 680.581C63.6379 680.581 61.8207 681.535 60.5271 682.706C55.6915 687.049 50.4554 675.683 53.8435 668.23C56.2151 663.024 57.6935 664.472 57.6935 671.987C57.6935 680.858 60.6195 683.476 60.3731 673.928C60.1267 664.657 60.2191 664.38 62.6831 666.412C63.8843 667.398 64.4696 669.339 64.0384 670.725Z" fill="#F0E7AF"/>
<path d="M56.2767 622.738C56.2767 621.598 64.0076 615.407 65.4244 615.407C68.1656 615.407 65.332 619.534 61.2355 621.506C58.4943 622.799 56.2767 623.354 56.2767 622.738Z" fill="#F0E7AF"/>
<path d="M59.1103 648.672C59.1103 657.85 60.4963 660.098 63.2683 655.386C66.4408 650.027 59.1103 626.588 59.1103 648.672Z" fill="#F0E7AF"/>
<path d="M41.2462 184.419C44.973 176.78 52.9811 169.08 59.9419 166.432C64.9316 164.553 64.87 164.091 60.9275 176.965C56.9235 189.932 46.6978 201.914 39.5829 201.914L35.8253 201.914C45.743 194.983 55.1063 180.415 54.2131 179.522C53.1967 178.505 46.6362 185.589 42.1086 192.612C37.5809 199.604 36.9033 193.259 41.2462 184.419Z" fill="#F0E7AF"/>
<path d="M40.0757 491.836C41.6774 486.539 52.4574 478.531 59.7571 477.206C67.2724 475.851 60.1267 486.6 49.9318 492.021C42.2626 496.087 38.7821 496.025 40.0757 491.836Z" fill="#F0E7AF"/>
<path d="M49.0694 558.765C49.7778 558.765 52.4574 561.384 54.9831 564.587C58.5559 569.084 59.7571 572.133 60.2499 578.046C61.0199 587.133 59.9111 587.749 56.8311 580.018C55.5991 576.907 53.9975 574.35 53.2891 574.35C51.903 574.35 55.3527 583.591 57.9091 586.64C59.6031 588.703 58.0323 589.135 55.2603 587.379C53.3199 586.147 48.7922 574.35 50.2398 574.35C50.7634 574.35 50.3938 573.58 49.4698 572.656C47.4986 570.654 47.1598 558.765 49.0694 558.765Z" fill="#F0E7AF"/>
<path d="M57.0159 509.393C57.4471 508.931 58.4019 509.516 59.1411 510.655C60.8351 513.304 60.8659 514.844 59.2335 514.875C57.6627 514.875 55.9071 510.501 57.0159 509.393Z" fill="#F0E7AF"/>
<path d="M57.4779 238.011C57.4779 239.644 60.5271 241.276 60.5271 238.011C60.5271 234.747 57.4779 236.379 57.4779 238.011Z" fill="#F0E7AF"/>
<path d="M56.8619 225.968C54.3671 225.968 54.7983 222.919 57.4163 222.057C58.3403 221.749 59.1103 222.488 59.1103 223.72C59.1103 224.952 58.0939 225.968 56.8619 225.968Z" fill="#F0E7AF"/>
<path d="M54.2747 209.182C55.1679 210.661 57.6935 209.398 57.6935 207.458C57.6935 204.716 52.7347 206.718 54.2747 209.182Z" fill="#F0E7AF"/>
<path d="M51.1946 646.793C50.825 641.68 51.1638 640.787 53.1658 641.156C55.0139 641.526 55.6607 643.435 55.9995 649.719C56.6463 662.408 52.1186 659.636 51.1946 646.793Z" fill="#F0E7AF"/>
<path d="M50.209 514.998C47.0058 505.943 47.0982 505.235 51.1638 509.054C54.8599 512.503 55.9995 515.553 55.1679 519.434C54.2747 523.592 52.7963 522.236 50.209 514.998Z" fill="#F0E7AF"/>
<path d="M51.4411 234.038C53.3815 231.944 55.2603 230.219 55.6299 230.219C57.1391 230.219 55.9995 234.007 53.5355 237.241C50.6402 240.999 43.5254 239.367 43.5254 234.931C43.5254 232.375 48.6998 227.385 51.3178 227.385C54.3671 227.385 53.9667 228.494 49.5622 232.283C44.3878 236.749 46.6978 239.151 51.4411 234.038Z" fill="#F0E7AF"/>
<path d="M46.4514 211.739C49.285 210.23 50.0242 210.414 52.2727 213.186C57.1391 219.223 54.9523 220.64 47.6526 216.174L43.2174 213.464L46.4514 211.739Z" fill="#F0E7AF"/>
<path d="M50.6402 668.476C49.1002 669.431 41.4001 665.796 39.9217 663.425C37.1189 658.897 49.5314 657.573 52.4574 660.714C53.3815 661.731 53.5047 662.224 52.7346 661.823C51.9646 661.423 50.055 661.608 48.4842 662.224C45.7738 663.302 45.8046 663.363 48.823 663.456C52.0262 663.548 53.2274 666.874 50.6402 668.476Z" fill="#F0E7AF"/>
<path d="M48.1762 708.516C44.819 701.248 43.4638 697.12 44.203 696.381C46.513 694.071 49.5006 704.697 51.3178 709.225C52.7962 712.89 49.901 712.243 48.1762 708.516Z" fill="#F0E7AF"/>
<path d="M49.1926 526.795C49.1926 529.875 52.0262 529.259 52.0262 527.657C52.0262 526.056 49.1926 523.776 49.1926 526.795Z" fill="#F0E7AF"/>
<path d="M41.6158 218.515C40.4145 215.004 43.4946 215.496 48.1146 219.562C52.6731 223.597 52.9503 224.552 49.439 224.521C46.2974 224.521 42.7554 221.81 41.6158 218.515Z" fill="#F0E7AF"/>
<path d="M43.8642 583.529L46.7594 589.905C49.5622 596.126 51.4718 614.021 49.747 617.902C47.7758 622.276 46.3282 618.857 46.205 609.401C46.051 597.081 43.433 585.346 44.0182 607.122C44.3262 618.58 44.0182 622.029 42.6938 621.536C37.2421 619.411 36.4721 600.469 41.4001 589.196L43.8642 583.529Z" fill="#F0E7AF"/>
<path d="M45.8354 671.217C47.0366 671.679 48.2686 672.049 48.6074 672.049C49.8702 672.049 49.1002 677.593 47.6834 678.455C45.7122 679.687 45.2502 679.133 44.3878 674.359C43.8026 671.217 44.1106 670.57 45.8354 671.217Z" fill="#F0E7AF"/>
<path d="M44.9422 652.922C44.9422 655.632 49.439 655.91 48.2994 652.922C47.1906 650.119 44.9422 650.15 44.9422 652.922Z" fill="#F0E7AF"/>
<path d="M40.6917 515.583C40.6917 521.928 44.3262 526.179 47.899 523.992C51.8414 521.528 40.6917 496.703 40.6917 515.583Z" fill="#F0E7AF"/>
<path d="M30.3121 78.928C28.8645 71.7207 40.8766 76.1868 46.205 84.8417C49.5314 90.2009 49.9934 92.1105 47.591 90.6321C46.7286 90.0777 45.4966 90.4781 44.8806 91.4945C42.509 95.3754 31.7597 86.1044 30.3121 78.928Z" fill="#F0E7AF"/>
<path d="M27.54 316.953C28.31 314.766 30.7741 314.581 30.7741 316.706C30.7741 319.571 52.5807 340.669 46.975 340.669C44.2646 340.669 26.7084 319.232 27.54 316.953Z" fill="#F0E7AF"/>
<path d="M41.5541 546.569C40.2913 543.273 41.9854 541.302 44.357 543.273C46.5438 545.09 46.8518 546.445 45.4042 547.862C43.8642 549.433 42.4782 548.971 41.5541 546.569Z" fill="#F0E7AF"/>
<path d="M42.9094 526.733C50.2398 529.536 34.2853 532.924 37.4269 534.187C40.8765 535.573 49.7778 526.918 43.4022 537.359C41.4925 540.47 39.8293 541.733 38.3817 541.178C34.9629 539.885 32.0061 541.025 33.0225 538.376C33.4537 537.267 33.1149 535.973 32.2833 535.45C28.002 532.801 37.7657 524.762 42.9094 526.733Z" fill="#F0E7AF"/>
<path d="M27.9404 111.977C27.9404 101.751 38.2893 105.324 44.0798 117.521C46.3898 122.356 47.1598 131.227 45.4042 132.982C44.357 134.03 41.6158 129.872 34.9629 117.059C25.846 99.5026 29.3265 112.993 35.9177 123.927C40.5994 131.75 41.0922 134.399 37.2421 131.196C34.3161 128.763 27.9404 115.58 27.9404 111.977Z" fill="#F0E7AF"/>
<path d="M31.544 757.181C32.5913 760.446 41.5541 769.747 43.6486 769.747C44.357 769.747 44.9422 770.702 44.9422 771.873C44.9422 775.107 43.7718 774.583 35.5481 767.53C28.1868 761.246 16.3287 741.257 18.6079 738.978C21.226 736.36 39.7677 752.006 42.8785 759.491C47.745 771.133 43.6486 768.947 31.1436 753.208C28.7104 750.128 28.002 749.789 27.9712 751.698C27.9404 755.425 30.0964 752.622 31.544 757.181Z" fill="#F0E7AF"/>
<path d="M34.4701 291.481C36.5337 289.417 37.0265 289.417 40.4761 291.481C51.1946 297.949 44.4802 308.698 32.6529 304.047C24.922 300.998 25.1992 298.873 33.2997 298.996C39.5213 299.088 41.0614 296.47 35.2709 295.608C31.6057 295.084 31.4825 294.468 34.4701 291.481Z" fill="#F0E7AF"/>
<path d="M39.9833 227.385C38.8437 229.264 44.9422 229.264 44.9422 227.385C44.9422 225.568 41.1538 225.476 39.9833 227.385Z" fill="#F0E7AF"/>
<path d="M38.1353 445.882C38.9977 441.817 40.2605 438.829 40.9073 439.23C44.357 441.355 39.7061 470.923 35.9177 470.954C34.5009 470.985 35.7329 457.001 38.1353 445.882Z" fill="#F0E7AF"/>
<path d="M27.6324 390.072C30.0349 387.578 38.2893 391.89 40.5377 396.818C42.509 401.191 42.5398 401.099 39.9833 402.084C38.8129 402.546 37.8581 403.871 37.8581 405.072C37.8581 408.645 33.6077 407.536 29.234 402.854C24.7988 398.111 25.0452 394.107 29.5112 398.173C31.7905 400.267 32.1909 400.298 32.1909 398.45C32.1909 397.249 30.7741 395.308 29.0184 394.107C26.4312 392.352 26.1848 391.582 27.6324 390.072Z" fill="#F0E7AF"/>
<path d="M23.3204 337.835C26.4004 337.835 37.2113 347.722 39.3981 352.527C45.8354 366.695 40.1065 363.769 28.7412 347.044C27.6632 345.474 26.3696 344.642 25.8152 345.196C24.4292 346.552 29.6345 354.56 35.6713 360.412C41.4002 365.956 41.9854 367.619 37.8273 366.541C31.1129 364.785 17.4683 337.835 23.3204 337.835Z" fill="#F0E7AF"/>
<path d="M35.7329 523.345C36.9033 525.255 39.2749 525.132 39.2749 523.345C39.2749 521.466 34.5625 521.466 35.7329 523.345Z" fill="#F0E7AF"/>
<path d="M33.6077 385.175C33.6077 383.882 34.5933 383.142 35.9793 383.42C39.5213 384.097 40.0141 387.393 36.5645 387.393C34.8089 387.393 33.6077 386.5 33.6077 385.175Z" fill="#F0E7AF"/>
<path d="M37.5809 287.939C34.9629 287.076 34.5317 284.027 37.0265 284.027C38.2585 284.027 39.2749 285.013 39.2749 286.245C39.2749 287.477 38.5049 288.247 37.5809 287.939Z" fill="#F0E7AF"/>
<path d="M18.2999 566.312C17.2835 559.166 30.1272 546.199 36.0101 548.447C40.9997 550.357 23.8132 581.404 17.7147 581.465C11.6163 581.465 33.5461 554.546 30.2504 554.546C29.3264 554.546 26.3696 557.872 23.6592 561.969C19.5628 568.19 18.6695 568.899 18.2999 566.312Z" fill="#F0E7AF"/>
<path d="M20.4252 128.27C23.1972 128.27 29.7885 136.155 33.2381 143.609C37.2729 152.325 39.2441 166.894 36.5953 168.557C35.0245 169.542 26.5544 153.711 26.5544 149.8C26.5544 148.783 25.9692 148.321 25.2608 148.752C23.6592 149.738 25.8152 158.116 29.5729 165.477C31.0513 168.372 31.6365 170.774 30.8665 170.774C29.1417 170.774 25.8768 164.645 23.1664 156.36C20.764 148.999 18.7312 128.27 20.4252 128.27Z" fill="#F0E7AF"/>
<path d="M27.7248 370.761C28.9568 371.993 29.7577 371.993 31.0513 370.699C38.4741 363.276 33.2073 383.142 29.9733 385.514C25.5688 388.748 21.1644 385.114 24.922 381.356C25.8152 380.494 26.4928 378.122 26.462 376.151C26.4004 372.732 26.2772 372.793 23.998 377.352C21.1952 382.927 18.8852 383.327 18.4847 378.276C18.1459 373.81 25.1068 368.143 27.7248 370.761Z" fill="#F0E7AF"/>
<path d="M27.9712 240.937C27.9712 241.861 28.9568 243.432 30.1581 244.449C32.5605 246.451 35.5789 251.471 34.4085 251.409C33.9773 251.409 31.0821 249.1 27.9404 246.266C24.7988 243.432 21.842 241.523 21.3184 242.046C20.0864 243.278 29.3881 252.857 31.7905 252.857C32.8069 252.857 33.6385 253.504 33.6385 254.274C33.6385 261.358 22.0268 252.149 16.0207 240.26C11.3391 231.051 11.4007 229.665 16.2979 230.866C20.5792 231.944 27.9712 238.289 27.9712 240.937Z" fill="#F0E7AF"/>
<path d="M32.4065 310.084C30.7741 311.1 28.5872 308.39 29.9425 307.035C30.4353 306.573 31.5133 306.85 32.3449 307.682C33.3613 308.698 33.3613 309.499 32.4065 310.084Z" fill="#F0E7AF"/>
<path d="M25.7844 283.288C24.5216 289.602 24.5832 291.481 26.0924 292.713C36.2565 301.183 30.6817 258.678 25.7844 283.288Z" fill="#F0E7AF"/>
<path d="M19.3779 623.076C16.0207 619.042 22.3656 588.488 26.5852 588.488C30.8973 588.488 26.924 624.678 22.1192 628.959C16.0823 634.349 22.7968 627.204 19.3779 623.076Z" fill="#F0E7AF"/>
<path d="M13.8031 171.822C15.3739 169.82 23.4128 179.922 25.692 186.729C28.4024 194.86 28.7413 206.657 26.2772 205.825C24.5524 205.24 23.5976 202.868 20.8872 192.335C18.7312 183.926 16.2671 185.713 17.2835 189.501C19.07 196.215 20.6716 202.93 23.1048 208.628C25.7228 214.757 23.3512 214.48 18.454 208.043C14.5731 202.992 11.0311 175.364 13.8031 171.822Z" fill="#F0E7AF"/>
<path d="M21.1644 306.696C21.38 304.756 22.2116 303.154 22.9816 303.154C25.1376 303.154 25.3532 315.443 23.2588 319.109C19.9324 324.961 20.2712 317.23 16.0823 320.71C12.7559 323.482 11.5855 312.548 14.3267 304.232C16.3287 298.164 18.454 300.721 17.5915 308.082C16.4211 317.907 19.6552 320.156 21.1644 306.696Z" fill="#F0E7AF"/>
<path d="M19.6552 296.132C20.2712 299.242 24.1828 301.029 23.4744 297.394C22.8584 294.284 18.9776 292.497 19.6552 296.132Z" fill="#F0E7AF"/>
<path d="M16.8215 287.631C16.2363 284.52 20.6408 272.693 22.3964 272.693C24.0288 272.693 23.8748 280.423 22.0576 286.583C20.6716 291.45 17.6839 292.066 16.8215 287.631Z" fill="#F0E7AF"/>
<path d="M6.59584 442.156C3.94701 432.608 9.05986 434.948 18.2383 447.453C21.5032 451.889 22.2732 454.445 22.304 460.543C22.304 470.307 21.0104 470.091 16.6367 459.619C13.2487 451.519 10.9695 448.901 10.9695 453.09C10.9695 456.324 27.5092 486.169 15.4971 471.015C5.97983 459.034 9.70667 453.336 6.59584 442.156Z" fill="#F0E7AF"/>
<path d="M16.1747 401.592C19.5012 394.939 19.4088 395 20.918 397.372C22.9508 400.575 22.458 404.764 19.6244 408.491C14.2651 415.452 6.59584 406.92 11.0619 398.974C13.4335 394.754 17.5607 392.814 16.1131 396.571C13.6491 403.039 13.6799 406.612 16.1747 401.592Z" fill="#F0E7AF"/>
<path d="M18.0227 389.426C18.0227 388.317 18.9776 387.393 20.148 387.393C22.304 387.393 23.074 390.38 21.38 392.074C20.0556 393.399 18.0227 391.797 18.0227 389.426Z" fill="#F0E7AF"/>
<path d="M14.3575 391.335C10.8771 393.214 5.17903 389.764 7.67385 387.27C8.78266 386.161 10.3227 386.315 13.1563 387.793C16.8831 389.764 16.9447 389.949 14.3575 391.335Z" fill="#F0E7AF"/>
<path d="M5.85664 381.849C10.1379 378.307 2.253 372.054 11.4623 376.243C13.3719 377.105 15.2199 379.354 15.5895 381.202C16.2671 384.713 14.6347 387.054 13.1871 384.713C12.2323 383.142 6.71904 384.344 6.71904 386.13C6.71904 386.838 6.07224 387.393 5.30223 387.393C3.20781 387.393 3.57742 383.728 5.85664 381.849Z" fill="#F0E7AF"/>
<path d="M12.3555 372.547C12.3555 374.734 14.0187 375.35 15.6203 373.779C17.6839 371.715 12.3555 368.081 12.3555 372.547Z" fill="#F0E7AF"/>
<path d="M4.22422 294.345C3.42342 291.881 8.81346 290.865 12.9099 292.713C19.5628 295.731 16.4519 299.088 8.90587 297.056C6.62664 296.44 4.50143 295.208 4.22422 294.345Z" fill="#F0E7AF"/>
<path d="M11.0311 281.317C12.9099 284.828 15.8359 283.565 13.7415 279.653C11.8319 276.173 8.90587 277.405 11.0311 281.317Z" fill="#F0E7AF"/>
<path d="M9.70667 520.635C2.1606 516.569 -1.44304 499.968 2.7458 488.418C9.18306 470.615 15.9283 516.261 13.2487 516.292C12.0167 516.292 9.58346 509.885 8.16665 502.832L7.02704 497.165C6.87304 503.233 6.28783 509.146 9.55266 515.583C13.0023 522.39 13.0023 522.39 9.70667 520.635Z" fill="#F0E7AF"/>
<path d="M8.01266 288.216C12.6019 290.649 14.4499 289.972 11.6471 286.861C6.59585 281.255 2.43781 285.228 8.01266 288.216Z" fill="#F0E7AF"/>
<path d="M6.22624 306.234C2.74581 304.91 3.39262 302.6 7.48905 301.583C12.0475 300.444 12.8483 301.244 10.4459 304.509C9.30627 306.111 7.64305 306.788 6.22624 306.234Z" fill="#F0E7AF"/>
<path d="M5.27142 607.522C2.9922 601.578 3.70061 600.253 6.71903 604.781C9.86066 609.555 10.1995 611.157 8.10504 611.157C7.30424 611.157 6.04143 609.524 5.27142 607.522Z" fill="#F0E7AF"/>
<path d="M2.46861 395.185C2.46861 397.28 6.81144 398.142 8.56706 396.417C11.4315 393.522 2.46861 391.212 2.46861 395.185Z" fill="#F0E7AF"/>
</svg>
